<?xml version="1.0" encoding="utf-8"?>
<!-- Generator: Adobe Illustrator 25.2.3, SVG Export Plug-In . SVG Version: 6.00 Build 0)  -->
<svg version="1.1" id="Layer_1" xmlns="http://www.w3.org/2000/svg" xmlns:xlink="http://www.w3.org/1999/xlink" x="0px" y="0px"
	 viewBox="0 0 358.31 400" style="enable-background:new 0 0 358.31 400;" xml:space="preserve">
<style type="text/css">
	.st0{fill:#FFFEF4;}
</style>
<g>
	<path class="st0" d="M119.7,118.42V300H100v-47.41c0-8.27,6.7-14.98,14.96-14.98v-1.95c-8.26,0-14.96-6.71-14.96-14.98V105.06
		c0-2.8,2.27-5.06,5.06-5.06l153.25,0v18.42H119.7z"/>
	<path class="st0" d="M157.65,300V154.56h100.67v-18.42H143c-2.79,0-5.06,2.27-5.06,5.06v79.48c0,8.27,6.7,14.98,14.96,14.98v1.95
		c-8.26,0-14.96,6.71-14.96,14.98V300H157.65z"/>
	<path class="st0" d="M195.59,245.99h62.72v-18.6h-62.72V190.7h62.72v-18.42h-77.37c-2.79,0-5.06,2.27-5.06,5.06v43.34
		c0,8.27,6.7,14.98,14.97,14.98v1.95c-8.26,0-14.97,6.71-14.97,14.98V300h19.7V245.99z"/>
</g>
</svg>
